<svg xmlns="http://www.w3.org/2000/svg" xmlns:xlink="http://www.w3.org/1999/xlink" viewBox="0 0 600 600"><defs><style>.a,.d,.j{fill:none;}.b{isolation:isolate;}.c{clip-path:url(#a);}.d{stroke:#296bcc;stroke-miterlimit:10;stroke-width:0.96px;}.e,.l{fill:#e3ecff;}.f{fill:#c1dfff;}.g{fill:#273d52;}.h{fill:#0065fe;}.i{fill:#005fe8;}.j{stroke:#273d52;stroke-linejoin:round;stroke-width:1.57px;}.k{fill:#485d70;}.l{mix-blend-mode:multiply;}.m{fill:#4a545f;}.n{fill:#ed2d26;}.o{fill:#ffac9f;}.p{fill:#f16869;}.q{fill:#fff;}</style><clipPath id="a"><rect class="a" x="-122.64" y="-1681.46" width="1000" height="1000"/></clipPath></defs><title>IllustrationsSolutionsV2_3DFactory</title><g class="b"><g class="c"><line class="d" x1="-967.64" y1="-422.48" x2="392.57" y2="362.84"/><line class="d" x1="-938.73" y1="-472.55" x2="421.47" y2="312.77"/><line class="d" x1="-909.82" y1="-522.62" x2="450.38" y2="262.7"/><line class="d" x1="-880.91" y1="-572.69" x2="479.29" y2="212.62"/><line class="d" x1="-852" y1="-622.76" x2="508.2" y2="162.55"/><line class="d" x1="-823.09" y1="-672.83" x2="537.11" y2="112.48"/><line class="d" x1="-794.18" y1="-722.9" x2="566.02" y2="62.41"/><line class="d" x1="-765.28" y1="-772.97" x2="594.93" y2="12.34"/><line class="d" x1="1722.36" y1="-422.48" x2="362.16" y2="362.84"/><line class="d" x1="1693.45" y1="-472.55" x2="333.25" y2="312.77"/><line class="d" x1="1664.55" y1="-522.62" x2="304.34" y2="262.7"/><line class="d" x1="1635.64" y1="-572.69" x2="275.44" y2="212.62"/><line class="d" x1="1606.73" y1="-622.76" x2="246.53" y2="162.55"/><line class="d" x1="1577.82" y1="-672.83" x2="217.62" y2="112.48"/><line class="d" x1="1548.91" y1="-722.9" x2="188.71" y2="62.41"/><line class="d" x1="1520" y1="-772.97" x2="159.8" y2="12.34"/></g><path class="e" d="M543.18,262.44c-4.75,0-8.61-2.33-9-5.3h-.08v-.5h0V166.55h18.4v90.59h-.29C551.79,260.11,547.94,262.44,543.18,262.44Z"/><path class="e" d="M382.86,352.31c-4.75,0-8.61-2.34-9-5.3h-.08v-.5h0V256.42h18.4V347h-.28C391.47,350,387.61,352.31,382.86,352.31Z"/><path class="e" d="M175.37,464.56c-4.76,0-8.61-2.34-9-5.3h-.08v-.5h0V368.67h18.4v90.59h-.29C184,462.22,180.12,464.56,175.37,464.56Z"/><path class="e" d="M44.28,396.45c-4.76,0-8.61-2.33-9-5.3h-.08v-.5h0V300.57h18.4v90.58h-.29C52.89,394.12,49,396.45,44.28,396.45Z"/><path class="e" d="M25.07,290.66c3.25-4.61,9.52-10.59,16-13L433.7,51.1v.38c5.28-2.17,10.79-2.07,15,3.05.24.3.42.63.64.94l119,70.52-412.89,238L147,397.74,24.7,325.15h0a11,11,0,0,1-2.87-2.47,17,17,0,0,1-3.78-9.44A37.77,37.77,0,0,1,25.07,290.66Z"/><path class="f" d="M150.25,365.73c3.25-4.61,9.52-10.59,16-13L558.87,126.17v.38c5.29-2.17,10.79-2.07,15,3a15.42,15.42,0,0,1,3.3,8.73,29.81,29.81,0,0,1,0,4.91,38.48,38.48,0,0,1-12.69,25.25,28.66,28.66,0,0,1-5.55,3.75h0L163.54,400.38v-.29c-5.73,2.41-12.27,2.79-16.53-2.35a17,17,0,0,1-3.78-9.43A37.66,37.66,0,0,1,150.25,365.73Z"/><path class="g" d="M160.23,369a21.93,21.93,0,0,1,9.12-7.42L556.59,137.86v.23c3-1.24,6.16-1.2,8.55,1.73a8.76,8.76,0,0,1,1.88,5,17.45,17.45,0,0,1,0,2.8A22,22,0,0,1,559.76,162a16.24,16.24,0,0,1-3.17,2.13h0L167.82,388.73v-.16c-3.28,1.37-7,1.59-9.44-1.34a9.75,9.75,0,0,1-2.16-5.39A21.57,21.57,0,0,1,160.23,369Z"/><path class="f" d="M556.68,150.89a8,8,0,0,0-1.71-4.53c-4.71-5.76-12.65.72-15.63,4.95a19.35,19.35,0,0,0-3.6,11.59,8.73,8.73,0,0,0,1.94,4.84c3.29,4,9.21,1.55,12.4-1.22a19.88,19.88,0,0,0,6.58-13.09A14.37,14.37,0,0,0,556.68,150.89Z"/><path class="f" d="M481.35,195a8,8,0,0,0-1.71-4.53c-4.7-5.76-12.64.72-15.62,5A19.33,19.33,0,0,0,460.41,207a8.76,8.76,0,0,0,1.94,4.85c3.29,4,9.22,1.54,12.41-1.22a20,20,0,0,0,6.58-13.1A15.38,15.38,0,0,0,481.35,195Z"/><path class="f" d="M393.75,244.79a8.06,8.06,0,0,0-1.71-4.53c-4.71-5.76-12.65.73-15.63,5a19.35,19.35,0,0,0-3.6,11.59,8.76,8.76,0,0,0,1.94,4.84c3.29,4,9.21,1.55,12.4-1.22a19.88,19.88,0,0,0,6.58-13.09A14.48,14.48,0,0,0,393.75,244.79Z"/><path class="f" d="M290.88,304.52a8.06,8.06,0,0,0-1.71-4.53c-4.7-5.76-12.64.72-15.63,5a19.41,19.41,0,0,0-3.6,11.59,8.76,8.76,0,0,0,1.94,4.84c3.29,4,9.22,1.55,12.4-1.22a19.94,19.94,0,0,0,6.59-13.09A15.51,15.51,0,0,0,290.88,304.52Z"/><path class="f" d="M185.8,365.11a8.06,8.06,0,0,0-1.71-4.53c-4.7-5.76-12.64.72-15.63,5a19.41,19.41,0,0,0-3.6,11.59A8.76,8.76,0,0,0,166.8,382c3.29,4,9.22,1.55,12.4-1.22a19.94,19.94,0,0,0,6.59-13.09A15.51,15.51,0,0,0,185.8,365.11Z"/><path class="h" d="M253.14,227.19H300l-23.24,13.55S253.14,227.26,253.14,227.19Z"/><polygon class="h" points="140.18 301.72 212.58 301.72 176.38 279.38 140.18 301.72"/><rect class="i" x="140.36" y="301.65" width="72.11" height="4.02"/><polygon class="h" points="225.52 246.67 196.76 234.7 216.21 259.97 225.52 246.67"/><polyline class="h" points="244.97 232.97 225.52 246.67 250.26 246.72"/><polygon class="h" points="236.32 246.84 247.44 260.12 216.21 259.97 236.32 246.84"/><polygon class="h" points="220.99 279.52 216.21 259.97 237.21 272.11 220.99 279.52"/><polygon class="h" points="196.76 234.7 201.42 280.58 216.21 259.97 196.76 234.7"/><polyline class="h" points="167.39 237.2 197.43 247 185.46 233.21"/><polygon class="h" points="169.67 264.62 199.26 259.64 183.8 275.93 169.67 264.62"/><polygon class="h" points="165.27 251.31 182.8 242.52 199.26 259.64 165.27 251.31"/><path class="j" d="M233.65,194.13c-6.61-5.23-15.72-8.2-27-8.2s-21.26,3.34-27.87,8.57"/><polygon class="j" points="197.43 222.7 182.43 233.38 216.21 237.06 197.43 222.7"/><polygon class="j" points="180.12 214.62 165.68 199.9 171.44 178.61 178.82 194.5 180.12 214.62"/><line class="j" x1="165.68" y1="199.32" x2="178.67" y2="193.84"/><polygon class="j" points="182.43 233.38 168.9 225.32 180.12 214.62 182.43 233.38"/><polygon class="j" points="165.73 199.79 160.43 220.56 180.12 214.62 165.73 199.79"/><polygon class="k" points="205.22 205.35 230.39 199.32 216.38 237.36 205.22 205.35"/><polygon class="k" points="223.67 217.56 244.84 225.01 216.38 237.36 223.67 217.56"/><polygon class="k" points="253.14 214.33 244.84 225.01 230.39 199.32 243.25 177.09 253.14 214.33"/><polyline class="j" points="171.44 178.61 176.36 166.42 193.39 158.05 208.11 157.18 224.57 159.2 238.42 167.86 243.2 178.11"/><line class="j" x1="160.32" y1="220.45" x2="176" y2="229.55"/><polyline class="j" points="174.39 228.2 167.39 237.2 165.27 251.31 170.21 265.06 183.25 275.99 200.53 280.93 220.99 279.52 237.21 272.11 247.44 260.12 250.26 246.72 244.97 232.97 239.33 227.32"/><polygon class="k" points="205.22 205.35 197.62 222.89 178.58 194.13 205.22 205.35"/><polygon class="j" points="182.43 233.38 178.82 194.5 197.43 222.7 182.43 233.38"/><line class="a" x1="196.76" y1="234.7" x2="216.21" y2="259.97"/><polyline class="j" points="216.21 237.06 244.84 225.01 253.14 214.33 243.25 178.02 230.39 199.32 244.84 225.01"/><path class="l" d="M298.87,482c-31.11,23.18-50.37,38.49-39.18,53.52s50.8,10.72,81.91-12.45,45.88-41.33,34.68-56.36S330,458.83,298.87,482Z"/><path class="m" d="M364.15,464.78s-.62,4.34-24.15,5c0,0-11.15,4.33,12.38,11.14s27.86,3.1,24.15-17.34Z"/><path class="m" d="M308.42,500.69l-23.53.62s-9.28,8.05,19.82,14.86,23.53-12.38,19.81-21Z"/><path class="n" d="M374.14,191.45c-7-7.78-33.63-2.19-33.63-2.19-18.81,4.84-31.57,19.61-31.57,19.61L301,331.14l3.38,167.58s10.83,10.83,25.26,0l9-126.31s8.12-15.34,9.92,0l11.73,94.73s7.22,6.32,19.85,1.81l.9-175C387,233,374.14,191.45,374.14,191.45Z"/><path class="o" d="M369.38,160.39a28.87,28.87,0,1,0-34.19,28.36l-1.9,6.82s18.95,7.22,26.17-5.41L357.14,184A28.81,28.81,0,0,0,369.38,160.39Z"/><path class="p" d="M314.48,151.89s8.66,9.66,28.31,12.65,29.63-3,29.63-3,4-27-8-34l-5.33-6.33s-7-7-22-5l-17.32,4.33s-6.33,12-6.66,20c0,0-5.66,1.66-6.66,4.33C306.49,144.9,303.16,150.56,314.48,151.89Z"/><path class="m" d="M319.2,155.76s10.73,25,36.8,29c0,0,10.85-4.6,14.26-22.17C370.26,162.56,336.77,168.8,319.2,155.76Z"/><path class="m" d="M353.5,176s-8.15,37.27,11.91,51.57C365.41,227.59,379,204.76,353.5,176Z"/><circle class="o" cx="254.54" cy="267.28" r="12.46"/><path class="n" d="M335.7,221.77a16.1,16.1,0,1,0-32.2,0c.77,42.17-9.2,42.17-9.2,42.17-11.5,4.6-28.36-4.6-28.36-4.6a37.55,37.55,0,0,0-6.9,22.23c73.59,55.19,76.66-56,76.66-56l-.47-.06A15.65,15.65,0,0,0,335.7,221.77Z"/><ellipse class="h" cx="427.63" cy="128.52" rx="36.31" ry="28.44"/><path class="k" d="M458.61,68.18h-.72c-.19,10.69-13.61,19.33-30.14,19.33s-29.95-8.64-30.14-19.33h-1.09L390.1,99.76h0c.69,10.61,20.18,19.27,37,19.27s36.93-9.27,37.63-19.88C464.74,99,458.61,68.18,458.61,68.18Z"/><ellipse class="m" cx="427.41" cy="69.12" rx="31.15" ry="20.2"/><ellipse class="g" cx="427.01" cy="81.92" rx="24.1" ry="7.41"/><path class="q" d="M417.8,87.47a47.24,47.24,0,0,0,9,.85,46.67,46.67,0,0,0,10.07-1.08,9.66,9.66,0,0,0-19,.23Z"/><line class="j" x1="223.67" y1="217.56" x2="244.84" y2="225.01"/><polyline class="j" points="197.43 222.7 205.22 205.35 216.21 237.06 230.39 199.32 205.22 205.35 178.82 194.5"/></g></svg>